<svg width="32" height="24" viewBox="0 0 32 24" fill="none" xmlns="http://www.w3.org/2000/svg">
<path d="M31.0607 13.0607C31.6464 12.4749 31.6464 11.5251 31.0607 10.9393L21.5147 1.3934C20.9289 0.807611 19.9792 0.807611 19.3934 1.3934C18.8076 1.97919 18.8076 2.92893 19.3934 3.51472L27.8787 12L19.3934 20.4853C18.8076 21.0711 18.8076 22.0208 19.3934 22.6066C19.9792 23.1924 20.9289 23.1924 21.5147 22.6066L31.0607 13.0607ZM0.0490196 13.5C0.877447 13.5 1.54902 12.8284 1.54902 12C1.54902 11.1716 0.877447 10.5 0.0490196 10.5V13.5ZM4.95098 10.5C4.12255 10.5 3.45098 11.1716 3.45098 12C3.45098 12.8284 4.12255 13.5 4.95098 13.5V10.5ZM5.04902 13.5C5.87745 13.5 6.54902 12.8284 6.54902 12C6.54902 11.1716 5.87745 10.5 5.04902 10.5V13.5ZM9.95098 10.5C9.12255 10.5 8.45098 11.1716 8.45098 12C8.45098 12.8284 9.12255 13.5 9.95098 13.5V10.5ZM10.049 13.5C10.8774 13.5 11.549 12.8284 11.549 12C11.549 11.1716 10.8774 10.5 10.049 10.5V13.5ZM14.951 10.5C14.1226 10.5 13.451 11.1716 13.451 12C13.451 12.8284 14.1226 13.5 14.951 13.5V10.5ZM15.049 13.5C15.8774 13.5 16.549 12.8284 16.549 12C16.549 11.1716 15.8774 10.5 15.049 10.5V13.5ZM19.951 10.5C19.1226 10.5 18.451 11.1716 18.451 12C18.451 12.8284 19.1226 13.5 19.951 13.5V10.5ZM20.049 13.5C20.8774 13.5 21.549 12.8284 21.549 12C21.549 11.1716 20.8774 10.5 20.049 10.5V13.5ZM24.951 10.5C24.1226 10.5 23.451 11.1716 23.451 12C23.451 12.8284 24.1226 13.5 24.951 13.5V10.5ZM25.049 13.5C25.8775 13.5 26.549 12.8284 26.549 12C26.549 11.1716 25.8775 10.5 25.049 10.5V13.5ZM29.951 10.5C29.1226 10.5 28.451 11.1716 28.451 12C28.451 12.8284 29.1226 13.5 29.951 13.5V10.5ZM0 13.5H0.0490196V10.5H0L0 13.5ZM4.95098 13.5H5.04902V10.5H4.95098V13.5ZM9.95098 13.5H10.049V10.5H9.95098V13.5ZM14.951 13.5H15.049V10.5H14.951V13.5ZM19.951 13.5H20.049V10.5H19.951V13.5ZM24.951 13.5H25.049V10.5H24.951V13.5ZM29.951 13.5H30V10.5H29.951V13.5Z" fill="#00A2DF"/>
<rect x="18" y="2.6049" width="3.68389" height="9" transform="rotate(-45 18 2.6049)" fill="white"/>
<rect x="24.364" y="15" width="3.68389" height="9" transform="rotate(45 24.364 15)" fill="white"/>
</svg>
