<svg id="Layer_1" data-name="Layer 1" xmlns="http://www.w3.org/2000/svg" viewBox="0 0 129 120.848"><defs><style>.cls-1{fill:#fff;}.cls-2{fill:#e6e6e6;}.cls-3{fill:#02bdb6;}.cls-4{fill:#ccc;}.cls-5{fill:#3f3d56;}</style></defs><path class="cls-1" d="M117.6,120.848H11.4V0H117.6Z"/><path class="cls-2" d="M117.6,120.848H11.4V0H117.6ZM12.955,119.405h103.09V1.443H12.955Z"/><rect class="cls-3" x="11.578" width="106.067" height="15.459"/><circle class="cls-2" cx="26.785" cy="29.351" r="9.03"/><rect class="cls-2" x="43.075" y="22.977" width="30.933" height="2.656"/><rect class="cls-2" x="43.075" y="29.351" width="68.171" height="2.656"/><rect class="cls-2" x="43.075" y="35.726" width="68.171" height="2.656"/><circle class="cls-2" cx="26.785" cy="103.268" r="9.03"/><rect class="cls-2" x="43.075" y="96.894" width="30.933" height="2.656"/><rect class="cls-2" x="43.075" y="103.268" width="68.171" height="2.656"/><rect class="cls-2" x="43.075" y="109.643" width="68.171" height="2.656"/><rect class="cls-1" x="14.833" y="3.95" width="13.457" height="1.948"/><rect class="cls-1" x="14.833" y="7.314" width="13.457" height="1.948"/><rect class="cls-1" x="14.833" y="10.679" width="13.457" height="1.948"/><path class="cls-1" d="M129,83.494H0V49.126H129Z"/><path class="cls-4" d="M129,83.494H0V49.126H129ZM1.556,81.938H127.444V50.682H1.556Z"/><circle class="cls-3" cx="16.008" cy="66.26" r="8.928"/><rect class="cls-5" x="34.74" y="58.733" width="36.938" height="2.626"/><rect class="cls-5" x="34.74" y="65.035" width="81.403" height="2.626"/><rect class="cls-5" x="34.74" y="71.337" width="81.403" height="2.626"/></svg>