<svg id="Layer_1" data-name="Layer 1" xmlns="http://www.w3.org/2000/svg" viewBox="0 0 60 53.599"><defs><style>.cls-1{fill:#738593;}.cls-2{fill:#02bdb6;}</style></defs><path class="cls-1" d="M24.753,46.371V42.224h-.232q-10.508,0-21.017,0a3.59,3.59,0,0,1-3.457-2.9A3.025,3.025,0,0,1,0,38.763Q0,21.153,0,3.544A3.462,3.462,0,0,1,.765,1.361,3.577,3.577,0,0,1,2.926.049,2.71,2.71,0,0,1,3.489,0q26.469,0,52.94,0A3.507,3.507,0,0,1,58.65.776,3.61,3.61,0,0,1,60,3.156a1.105,1.105,0,0,1,0,.163q0,17.772,0,35.544a3.189,3.189,0,0,1-.853,2.129,3.445,3.445,0,0,1-1.983,1.167,2.959,2.959,0,0,1-.538.063q-10.55,0-21.1,0h-.273v4.147h.24c1.478,0,2.957-.009,4.435,0a5.862,5.862,0,0,1,3.174.969A6.2,6.2,0,0,1,45,49.237a5.8,5.8,0,0,1,.933,2.53,6.024,6.024,0,0,1,.033,1.082.869.869,0,0,1-.852.744c-.082,0-.163,0-.244,0q-14.945,0-29.889.006a.97.97,0,0,1-1-.987,6.425,6.425,0,0,1,.457-2.317,6.284,6.284,0,0,1,1.713-2.4A6.144,6.144,0,0,1,19,46.487a6.808,6.808,0,0,1,1.424-.118c1.357.005,2.713,0,4.069,0ZM58.127,32.449V32.16q0-13.6,0-27.2c0-.5-.017-1-.038-1.5a1.709,1.709,0,0,0-1.631-1.552H3.6a1.628,1.628,0,0,0-.845.235,1.787,1.787,0,0,0-.878,1.666q0,14.213,0,28.423v.22ZM1.887,34.342c-.005.062-.013.114-.013.167q.018,2.133.04,4.266a1.505,1.505,0,0,0,.367.919,1.851,1.851,0,0,0,1.557.657q16.245,0,32.49,0,9.918,0,19.836,0a2.121,2.121,0,0,0,1.05-.234,1.775,1.775,0,0,0,.909-1.664c.013-1.3,0-2.6,0-3.906,0-.065-.007-.131-.011-.2Zm42.1,17.336a4.372,4.372,0,0,0-1.7-2.565,4.259,4.259,0,0,0-2.566-.833q-9.805.009-19.612.009a3.677,3.677,0,0,0-.971.141A4.331,4.331,0,0,0,16.8,50.01a4.378,4.378,0,0,0-.786,1.668ZM33.315,46.364V42.241H26.688v4.123Z" transform="translate(0)"/><path class="cls-2" d="M30.2,26.1a8.922,8.922,0,1,1,8.922-8.921A8.931,8.931,0,0,1,30.2,26.1Zm0-16.281a7.359,7.359,0,1,0,7.359,7.36A7.369,7.369,0,0,0,30.2,9.818Z" transform="translate(0)"/><polygon class="cls-2" points="24.526 18.159 25.582 17.103 28.542 20.059 34.829 13.754 35.868 14.836 28.532 22.16 24.526 18.159"/></svg>